PathFileType	4	(X/Y/Z)	C:\Users\chris\Documents\GitHub\baseballds\vids\pitch7_Sports2D\pitch7_Sports2D_px_person00.trc
DataRate	CameraRate	NumFrames	NumMarkers	Units	OrigDataRate	OrigDataStartFrame	OrigNumFrames
30	30	7	22	m	30	88	236
Frame#	Time	Hip			RHip			RKnee			RAnkle			RBigToe			RSmallToe			RHeel			LHip			LKnee			LAnkle			LBigToe			LSmallToe			LHeel			Neck			Head			Nose			RShoulder			RElbow			RWrist			LShoulder			LElbow			LWrist		
		X1	Y1	Z1	X2	Y2	Z2	X3	Y3	Z3	X4	Y4	Z4	X5	Y5	Z5	X6	Y6	Z6	X7	Y7	Z7	X8	Y8	Z8	X9	Y9	Z9	X10	Y10	Z10	X11	Y11	Z11	X12	Y12	Z12	X13	Y13	Z13	X14	Y14	Z14	X15	Y15	Z15	X16	Y16	Z16	X17	Y17	Z17	X18	Y18	Z18	X19	Y19	Z19	X20	Y20	Z20	X21	Y21	Z21	X22	Y22	Z22
88	2.933333333333333	768.8436618655221	515.4825446332686	0.0	718.9553284582043	526.7303049360521	0.0	719.6262209449534	721.221039954544	0.0	705.2239048130624	877.7335232054852	0.0	714.4430388378534	940.5434917966022	0.0	681.3927721393611	934.888097693258	0.0	710.8515604800702	897.6676764028102	0.0	818.5579266913398	523.8640705016546	0.0	843.9990483333106	715.9553307083631	0.0	880.1399408422786	868.2718731146826	0.0	853.8663853039205	926.9959512675279	0.0	886.4895090288317	923.845322807073	0.0	889.497868681558	888.7631831783804	0.0	752.6063260021862	264.0849987893941	0.0	762.36372123159	142.8800388670435	0.0	798.6332986526478	211.81460080869317	0.0	669.938721551948	318.32291628639484	0.0	650.586325462718	449.69145717530057	0.0	691.5036280843719	550.7597483579908	0.0	840.9502766093419	291.68235261330034	0.0	910.9257394208768	383.5833634904526	0.0	1006.1004206987465	437.3242855205602	0.0
89	2.966666666666667	765.1376091854409	519.0111515933032	0.0	715.73037687825	529.6926534417639	0.0	718.6299143173653	722.64614175115	0.0	706.8815399217048	880.9883930400871	0.0	713.3649692761331	941.1894675693768	0.0	681.853342865874	937.0925334273353	0.0	713.0710840661396	900.2382371272885	0.0	815.4166483726353	527.4014090613339	0.0	843.0543676240691	716.6888952721522	0.0	883.2370364239906	869.7398491450144	0.0	855.0412504964859	926.3904171094061	0.0	887.6694557756746	923.3630215851201	0.0	891.2820005890521	889.7411230591872	0.0	751.7118442920557	265.2096183134294	0.0	758.0439167937783	143.96227983039753	0.0	789.351604374963	211.24057622984782	0.0	668.3607183136452	318.24000285013636	0.0	649.6121352966942	448.3111310112365	0.0	697.4706834752153	540.8263072109038	0.0	838.8288091449815	294.5274301517391	0.0	901.884331184807	392.0350041666782	0.0	984.7354764524146	456.92913936376885	0.0
90	3.0	762.5217345490074	520.3470848878341	0.0	712.9902493647766	530.4342526927248	0.0	718.3832088088358	720.9425931829026	0.0	708.9189850662478	883.5504787211662	0.0	713.8625985129648	942.2439850666975	0.0	684.0752618776602	939.5538659559959	0.0	715.0808243761117	902.7957811887754	0.0	813.2880090203114	527.8475866564288	0.0	842.5721485274445	715.302072555135	0.0	884.3472131240079	870.0555523564408	0.0	856.7389124120502	926.4118742128421	0.0	889.5806713945312	923.2551232005285	0.0	891.2156690285062	889.5942283946839	0.0	751.3503569337784	265.817067516519	0.0	754.1308399178737	143.9047269954868	0.0	780.0354594565439	208.83958934148882	0.0	666.7486323282201	317.6616146985573	0.0	648.9127407858902	446.55699908823135	0.0	702.7100142224382	530.1737160538362	0.0	837.2110361816062	296.71638007491225	0.0	892.9576670791711	399.58445423354067	0.0	963.4707158364329	473.30342176149554	0.0
91	3.033333333333333	761.7898330141122	520.0378943178029	0.0	711.351923163555	530.1580727737115	0.0	718.7849363362932	719.6576830229751	0.0	711.1455269229655	883.3936699576176	0.0	717.9012281301054	941.5646054120807	0.0	688.8418136260321	939.632893243702	0.0	716.6407579185695	902.7052989039034	0.0	812.5033184017493	526.5895309804765	0.0	842.5357715283508	713.8536002342072	0.0	884.1469979340147	869.5960349288866	0.0	859.1097130620665	927.6185087202971	0.0	891.7928887616068	923.8147281516419	0.0	890.5310564535696	889.239777991538	0.0	751.486771096228	265.81248940798065	0.0	751.300026196182	142.2472164592943	0.0	771.9700724493803	205.60459682289957	0.0	665.7309851617777	316.86730278855225	0.0	648.8006858298716	445.09266083854925	0.0	706.7539852289786	520.562790741945	0.0	836.3420737744821	297.9407777088787	0.0	883.715580923967	404.1083878606358	0.0	942.1885063164	484.22403610299824	0.0
92	3.0666666666666664	762.1414590868023	520.1734215674077	0.0	710.891600282174	530.4235661848913	0.0	719.4822113273665	719.7247390917595	0.0	713.1837050135757	882.276436325589	0.0	723.9809040491552	938.4482908305539	0.0	694.4047626334437	936.9715500370612	0.0	717.8528828803567	901.3459081433236	0.0	812.6936174182707	526.3752021415573	0.0	842.8643600344026	713.8523340039399	0.0	884.4833616301956	869.7597284578192	0.0	862.1769089793443	929.4973741432636	0.0	894.0917910756293	924.8321746249715	0.0	890.6636327678441	889.8576171383047	0.0	751.6220174852531	265.58554724409356	0.0	749.9647164934381	140.39062392977118	0.0	765.7098793310315	203.0612252816851	0.0	665.8412314826546	316.053066819675	0.0	648.9310149502545	444.13950106280794	0.0	710.31535031117	511.75366496848335	0.0	835.8063297220314	298.6299596688236	0.0	875.6633018070937	405.4379095267701	0.0	920.6242304340846	489.33662467881317	0.0
93	3.1	762.5642545752623	521.9335821242641	0.0	711.2182327527174	532.1459510713895	0.0	720.2949885712715	719.7304843218712	0.0	715.1800328403292	882.9526575887005	0.0	728.5021979054981	935.4921469980544	0.0	697.803960593004	934.1464636323178	0.0	719.1204829535744	901.3881362830045	0.0	813.4376978406483	528.2618073435272	0.0	843.9629047218729	714.6015937947865	0.0	885.9155924443202	870.0720205096776	0.0	865.6339395274696	930.578450253127	0.0	896.4543741377545	925.0997519586031	0.0	891.5873230360736	890.5501876004735	0.0	751.542970591806	265.4587833797573	0.0	749.3954996501947	139.38887776640672	0.0	762.1318960665046	201.66689960909974	0.0	666.3595872310982	315.5803320789829	0.0	649.3543176086373	443.4684622117102	0.0	715.4042005343382	503.7276552272239	0.0	835.4866091911102	299.17377865287176	0.0	870.62482750599	406.0366850293675	0.0	899.0830165111972	490.88188505301696	0.0
94	3.1333333333333333	763.431369253582	525.3498262663364	0.0	712.3335867034805	535.486074318702	0.0	720.9186538180724	719.9345580810545	0.0	717.4954309588071	884.8253716859817	0.0	730.5809915303423	935.0312958307495	0.0	698.8280803937744	933.3042263393215	0.0	721.205986499508	902.5783483664434	0.0	814.8580733283827	532.1844260742056	0.0	845.8745152616711	715.2390621130337	0.0	887.7250870746395	868.9580107982347	0.0	868.9054910010839	929.4645418654109	0.0	898.9734562701865	923.6528140539233	0.0	892.9342288197978	889.366026757842	0.0	751.6319132525315	264.98736535679257	0.0	749.2830681696182	138.7999533214035	0.0	761.3857140771115	200.93707807083766	0.0	666.5754414787324	315.49804975260736	0.0	650.5332151574027	443.21456082279104	0.0	722.9623431806829	497.3341235333188	0.0	835.9327274159705	299.2645492954865	0.0	868.7530989320508	408.10293996838755	0.0	879.0107368945628	490.716039330087	0.0
